<svg height="512" viewBox="0 0 512 512" width="512" xmlns="http://www.w3.org/2000/svg"><g><g fill="#57a4ff"><path d="m472 448h-432a24.006 24.006 0 0 1 -24-24v48a24.006 24.006 0 0 0 24 24h432a24.006 24.006 0 0 0 24-24v-48a24.006 24.006 0 0 1 -24 24z"/><path d="m472 48h-32v32h-48v-32h-112v32h-48v-32h-112v32h-48v-32h-32a24.006 24.006 0 0 0 -24 24v40h480v-40a24.006 24.006 0 0 0 -24-24z"/><path d="m232 176h48v48h-48z"/><path d="m152 176h48v48h-48z"/><path d="m72 176h48v48h-48z"/><path d="m312 176h48v48h-48z"/><path d="m392 176h48v48h-48z"/><path d="m232 256h48v48h-48z"/><path d="m152 256h48v48h-48z"/><path d="m72 256h48v48h-48z"/><path d="m312 256h48v48h-48z"/><path d="m392 256h48v48h-48z"/><path d="m232 336h48v48h-48z"/><path d="m152 336h48v48h-48z"/><path d="m72 336h48v48h-48z"/><path d="m312 336h48v48h-48z"/></g><g fill="#004fac"><path d="m472 40h-24v-24a8 8 0 0 0 -8-8h-48a8 8 0 0 0 -8 8v24h-96v-24a8 8 0 0 0 -8-8h-48a8 8 0 0 0 -8 8v24h-96v-24a8 8 0 0 0 -8-8h-48a8 8 0 0 0 -8 8v24h-24a32.036 32.036 0 0 0 -32 32v400a32.036 32.036 0 0 0 32 32h432a32.036 32.036 0 0 0 32-32v-400a32.036 32.036 0 0 0 -32-32zm-72-16h32v48h-32zm-160 0h32v48h-32zm-160 0h32v48h-32zm408 448a16.021 16.021 0 0 1 -16 16h-432a16.021 16.021 0 0 1 -16-16v-20.31a31.705 31.705 0 0 0 16 4.31h432a31.705 31.705 0 0 0 16-4.31zm0-48a16.021 16.021 0 0 1 -16 16h-432a16.021 16.021 0 0 1 -16-16v-304h464zm0-320h-464v-32a16.021 16.021 0 0 1 16-16h24v24a8 8 0 0 0 8 8h48a8 8 0 0 0 8-8v-24h96v24a8 8 0 0 0 8 8h48a8 8 0 0 0 8-8v-24h96v24a8 8 0 0 0 8 8h48a8 8 0 0 0 8-8v-24h24a16.021 16.021 0 0 1 16 16z"/><path d="m232 232h48a8 8 0 0 0 8-8v-48a8 8 0 0 0 -8-8h-48a8 8 0 0 0 -8 8v48a8 8 0 0 0 8 8zm8-48h32v32h-32z"/><path d="m152 232h48a8 8 0 0 0 8-8v-48a8 8 0 0 0 -8-8h-48a8 8 0 0 0 -8 8v48a8 8 0 0 0 8 8zm8-48h32v32h-32z"/><path d="m72 232h48a8 8 0 0 0 8-8v-48a8 8 0 0 0 -8-8h-48a8 8 0 0 0 -8 8v48a8 8 0 0 0 8 8zm8-48h32v32h-32z"/><path d="m312 232h48a8 8 0 0 0 8-8v-48a8 8 0 0 0 -8-8h-48a8 8 0 0 0 -8 8v48a8 8 0 0 0 8 8zm8-48h32v32h-32z"/><path d="m392 232h48a8 8 0 0 0 8-8v-48a8 8 0 0 0 -8-8h-48a8 8 0 0 0 -8 8v48a8 8 0 0 0 8 8zm8-48h32v32h-32z"/><path d="m232 312h48a8 8 0 0 0 8-8v-48a8 8 0 0 0 -8-8h-48a8 8 0 0 0 -8 8v48a8 8 0 0 0 8 8zm8-48h32v32h-32z"/><path d="m152 312h48a8 8 0 0 0 8-8v-48a8 8 0 0 0 -8-8h-48a8 8 0 0 0 -8 8v48a8 8 0 0 0 8 8zm8-48h32v32h-32z"/><path d="m72 312h48a8 8 0 0 0 8-8v-48a8 8 0 0 0 -8-8h-48a8 8 0 0 0 -8 8v48a8 8 0 0 0 8 8zm8-48h32v32h-32z"/><path d="m312 312h48a8 8 0 0 0 8-8v-48a8 8 0 0 0 -8-8h-48a8 8 0 0 0 -8 8v48a8 8 0 0 0 8 8zm8-48h32v32h-32z"/><path d="m392 312h48a8 8 0 0 0 8-8v-48a8 8 0 0 0 -8-8h-48a8 8 0 0 0 -8 8v48a8 8 0 0 0 8 8zm8-48h32v32h-32z"/><path d="m232 392h48a8 8 0 0 0 8-8v-48a8 8 0 0 0 -8-8h-48a8 8 0 0 0 -8 8v48a8 8 0 0 0 8 8zm8-48h32v32h-32z"/><path d="m152 392h48a8 8 0 0 0 8-8v-48a8 8 0 0 0 -8-8h-48a8 8 0 0 0 -8 8v48a8 8 0 0 0 8 8zm8-48h32v32h-32z"/><path d="m72 392h48a8 8 0 0 0 8-8v-48a8 8 0 0 0 -8-8h-48a8 8 0 0 0 -8 8v48a8 8 0 0 0 8 8zm8-48h32v32h-32z"/><path d="m312 392h48a8 8 0 0 0 8-8v-48a8 8 0 0 0 -8-8h-48a8 8 0 0 0 -8 8v48a8 8 0 0 0 8 8zm8-48h32v32h-32z"/></g></g></svg>